<svg width="180" height="180" viewBox="0 0 180 180" fill="none" xmlns="http://www.w3.org/2000/svg">
<g clip-path="url(#clip0_159_841)">
<path d="M154.671 0H25.3292C11.3402 0 0 11.3402 0 25.3292V154.671C0 168.66 11.3402 180 25.3292 180H154.671C168.66 180 180 168.66 180 154.671V25.3292C180 11.3402 168.66 0 154.671 0Z" fill="white"/>
<path d="M66.2373 20.0556H62.7459C61.7526 20.0556 60.9473 19.2503 60.9473 18.257V16.5642C60.9473 15.5709 61.7526 14.7656 62.7459 14.7656H66.2373V20.0556Z" fill="black"/>
<path d="M66.0781 20.0556V16.5642C66.0781 15.5709 66.8834 14.7656 67.8767 14.7656H69.5695C70.5628 14.7656 71.3681 15.5709 71.3681 16.5642V20.0556H66.0781Z" fill="black"/>
<path d="M74.8862 19.9498V20.0556H76.4997V18.4421H76.3939C76.3939 19.278 75.7168 19.9498 74.8862 19.9498Z" fill="black"/>
<path d="M76.3408 20.0556V16.5642C76.3408 15.5709 77.1461 14.7656 78.1394 14.7656H79.8322C80.8255 14.7656 81.6308 15.5709 81.6308 16.5642V20.0556H76.3408Z" fill="black"/>
<path d="M91.8936 20.0556H88.4022C87.4088 20.0556 86.6036 19.2503 86.6036 18.257V16.5642C86.6036 15.5709 87.4088 14.7656 88.4022 14.7656H91.8936V20.0556Z" fill="black"/>
<path d="M91.7349 20.0556V14.7656H95.2262C96.2196 14.7656 97.0248 15.5709 97.0248 16.5642V20.0556H91.7349Z" fill="black"/>
<path d="M105.674 19.9498V20.0556H107.287V18.4421H107.181C107.181 19.278 106.504 19.9498 105.674 19.9498Z" fill="black"/>
<path d="M112.418 20.0556H107.128V16.5642C107.128 15.5709 107.934 14.7656 108.927 14.7656H112.418V20.0556Z" fill="black"/>
<path d="M112.26 20.0556V16.5642C112.26 15.5709 113.065 14.7656 114.058 14.7656H115.751C116.744 14.7656 117.55 15.5709 117.55 16.5642V20.0556H112.26Z" fill="black"/>
<path d="M55.8159 21.4098V23.6792C55.8159 24.5151 56.493 25.1869 57.3288 25.1869H59.5982C60.4394 25.1869 61.1112 24.5098 61.1112 23.6739V21.4098C61.1059 20.5687 60.4288 19.8969 59.593 19.8969H57.3288C56.493 19.8969 55.8159 20.574 55.8159 21.4098Z" fill="black"/>
<path d="M76.4995 25.1869H73.0081C72.0148 25.1869 71.2095 24.3816 71.2095 23.3883V21.6955C71.2095 20.7022 72.0148 19.8969 73.0081 19.8969H76.4995V25.1869Z" fill="black"/>
<path d="M81.6308 19.8969H76.3408V25.1869H81.6308V19.8969Z" fill="black"/>
<path d="M81.4722 25.1869V19.8969H84.9635C85.9569 19.8969 86.7621 20.7022 86.7621 21.6955V25.1869H81.4722Z" fill="black"/>
<path d="M97.0249 19.8969V23.3883C97.0249 24.3816 96.2196 25.1869 95.2263 25.1869H93.5335C92.5402 25.1869 91.7349 24.3816 91.7349 23.3883V19.8969H97.0249Z" fill="black"/>
<path d="M107.287 25.1869H101.997V21.6955C101.997 20.7022 102.802 19.8969 103.796 19.8969H107.287V25.1869Z" fill="black"/>
<path d="M112.418 19.8969H107.128V25.1869H112.418V19.8969Z" fill="black"/>
<path d="M115.936 25.0811V25.1869H117.549V23.5734H117.444C117.444 24.4092 116.767 25.0811 115.936 25.0811Z" fill="black"/>
<path d="M117.391 25.1869V21.6955C117.391 20.7022 118.196 19.8969 119.19 19.8969H120.882C121.876 19.8969 122.681 20.7022 122.681 21.6955V25.1869H117.391Z" fill="black"/>
<path d="M86.7621 25.0281H81.4722V30.3181H86.7621V25.0281Z" fill="black"/>
<path d="M86.6035 30.3181V25.0281H90.0949C91.0882 25.0281 91.8935 25.8334 91.8935 26.8267V30.3181H86.6035Z" fill="black"/>
<path d="M107.287 25.0281V30.3181L103.796 30.3181C102.802 30.3181 101.997 29.5128 101.997 28.5195V25.0281L107.287 25.0281Z" fill="black"/>
<path d="M112.418 25.0281H107.128V30.3181H112.418V25.0281Z" fill="black"/>
<path d="M117.55 25.0281H112.26V30.3181H117.55V25.0281Z" fill="black"/>
<path d="M117.391 25.0281H122.681V28.5195C122.681 29.5128 121.876 30.3181 120.882 30.3181H117.391V25.0281Z" fill="black"/>
<path d="M60.9473 35.4494V31.958C60.9473 30.9647 61.7525 30.1594 62.7459 30.1594H64.4386C65.432 30.1594 66.2372 30.9647 66.2372 31.958V35.4494H60.9473Z" fill="black"/>
<path d="M71.2095 35.4494V31.958C71.2095 30.9647 72.0147 30.1594 73.0081 30.1594H74.7009C75.6942 30.1594 76.4994 30.9647 76.4994 31.958V35.4494H71.2095Z" fill="black"/>
<path d="M86.7622 30.1594V35.4494L83.2708 35.4494C82.2775 35.4494 81.4722 34.6441 81.4722 33.6508V30.1594L86.7622 30.1594Z" fill="black"/>
<path d="M86.6035 30.1594H91.8935V33.6508C91.8935 34.6441 91.0882 35.4494 90.0949 35.4494H86.6035V30.1594Z" fill="black"/>
<path d="M95.4111 35.3436V35.4494H97.0246V33.8359H96.9188C96.9188 34.6718 96.2417 35.3436 95.4111 35.3436Z" fill="black"/>
<path d="M96.8657 35.4494V31.958C96.8657 30.9647 97.671 30.1594 98.6643 30.1594H100.357C101.35 30.1594 102.156 30.9647 102.156 31.958V35.4494H96.8657Z" fill="black"/>
<path d="M112.418 30.1594H107.128V35.4494H112.418V30.1594Z" fill="black"/>
<path d="M112.26 30.1594H117.55V33.6508C117.55 34.6441 116.744 35.4494 115.751 35.4494H112.26V30.1594Z" fill="black"/>
<path d="M66.2373 35.2907V38.7821C66.2373 39.7754 65.432 40.5807 64.4387 40.5807L62.7459 40.5807C61.7526 40.5807 60.9473 39.7754 60.9473 38.7821V35.2907L66.2373 35.2907Z" fill="black"/>
<path d="M76.4995 35.2907V40.5807L73.0081 40.5807C72.0148 40.5807 71.2095 39.7754 71.2095 38.7821V35.2907L76.4995 35.2907Z" fill="black"/>
<path d="M76.3408 40.5807V35.2907H79.8322C80.8255 35.2907 81.6308 36.096 81.6308 37.0893V40.5807H76.3408Z" fill="black"/>
<path d="M97.0249 40.5807H93.5335C92.5402 40.5807 91.7349 39.7754 91.7349 38.7821V37.0893C91.7349 36.096 92.5402 35.2907 93.5335 35.2907H97.0249V40.5807Z" fill="black"/>
<path d="M102.156 35.2907H96.8657V40.5807H102.156V35.2907Z" fill="black"/>
<path d="M112.418 35.2907H107.128V40.5807H112.418V35.2907Z" fill="black"/>
<path d="M55.8159 45.712V42.2206C55.8159 41.2273 56.6212 40.422 57.6145 40.422H59.3073C60.3006 40.422 61.1059 41.2273 61.1059 42.2206V45.712H55.8159Z" fill="black"/>
<path d="M66.0781 45.712V42.2206C66.0781 41.2273 66.8834 40.422 67.8767 40.422H69.5695C70.5628 40.422 71.3681 41.2273 71.3681 42.2206V45.712H66.0781Z" fill="black"/>
<path d="M81.6308 40.422H76.3408V45.712H81.6308V40.422Z" fill="black"/>
<path d="M81.4722 45.712V42.2206C81.4722 41.2273 82.2774 40.422 83.2708 40.422H84.9635C85.9569 40.422 86.7621 41.2273 86.7621 42.2206V45.712H81.4722Z" fill="black"/>
<path d="M102.156 40.422H96.8657V45.712H102.156V40.422Z" fill="black"/>
<path d="M112.418 40.422H107.128V45.712H112.418V40.422Z" fill="black"/>
<path d="M117.55 40.422H112.26V45.712H117.55V40.422Z" fill="black"/>
<path d="M117.391 45.712V40.422H120.882C121.876 40.422 122.681 41.2273 122.681 42.2206V45.712H117.391Z" fill="black"/>
<path d="M61.1059 45.5532H55.8159V50.8432H61.1059V45.5532Z" fill="black"/>
<path d="M71.3682 45.5532V49.0446C71.3682 50.0379 70.5629 50.8432 69.5696 50.8432L67.8768 50.8432C66.8835 50.8432 66.0782 50.0379 66.0782 49.0446V45.5532L71.3682 45.5532Z" fill="black"/>
<path d="M74.8862 50.7374V50.8432H76.4997V49.2298H76.3939C76.3939 50.0656 75.7168 50.7374 74.8862 50.7374Z" fill="black"/>
<path d="M81.6308 45.5532H76.3408V50.8432H81.6308V45.5532Z" fill="black"/>
<path d="M85.1484 50.7374V50.8432H86.7619V49.2298H86.6561C86.6561 50.0656 85.979 50.7374 85.1484 50.7374Z" fill="black"/>
<path d="M86.6035 50.8432V47.3518C86.6035 46.3585 87.4088 45.5532 88.4021 45.5532H90.0949C91.0882 45.5532 91.8935 46.3585 91.8935 47.3518V50.8432H86.6035Z" fill="black"/>
<path d="M95.4111 50.7374V50.8432H97.0246V49.2298H96.9188C96.9188 50.0656 96.2417 50.7374 95.4111 50.7374Z" fill="black"/>
<path d="M102.156 45.5532H96.8657V50.8432H102.156V45.5532Z" fill="black"/>
<path d="M105.674 50.7374V50.8432H107.287V49.2298H107.181C107.181 50.0656 106.504 50.7374 105.674 50.7374Z" fill="black"/>
<path d="M112.418 45.5532H107.128V50.8432H112.418V45.5532Z" fill="black"/>
<path d="M122.681 45.5532H117.391V50.8432H122.681V45.5532Z" fill="black"/>
<path d="M61.106 50.6845V54.1759C61.106 55.1692 60.3007 55.9745 59.3074 55.9745L57.6146 55.9745C56.6212 55.9745 55.816 55.1692 55.816 54.1759V50.6845L61.106 50.6845Z" fill="black"/>
<path d="M76.4995 55.9745H71.2095V52.4831C71.2095 51.4898 72.0148 50.6845 73.0081 50.6845H76.4995V55.9745Z" fill="black"/>
<path d="M81.6308 50.6845H76.3408V55.9745H81.6308V50.6845Z" fill="black"/>
<path d="M86.7621 50.6845H81.4722V55.9745H86.7621V50.6845Z" fill="black"/>
<path d="M91.8935 50.6845H86.6035V55.9745H91.8935V50.6845Z" fill="black"/>
<path d="M97.0248 50.6845H91.7349V55.9745H97.0248V50.6845Z" fill="black"/>
<path d="M102.156 50.6845H96.8657V55.9745H102.156V50.6845Z" fill="black"/>
<path d="M107.287 50.6845H101.997V55.9745H107.287V50.6845Z" fill="black"/>
<path d="M112.418 50.6845H107.128V55.9745H112.418V50.6845Z" fill="black"/>
<path d="M122.681 50.6845H117.391V55.9745H122.681V50.6845Z" fill="black"/>
<path d="M40.5806 61.1058H35.2906V57.6144C35.2906 56.6211 36.0959 55.8158 37.0892 55.8158H40.5806V61.1058Z" fill="black"/>
<path d="M45.7118 55.8158H40.4219V61.1058H45.7118V55.8158Z" fill="black"/>
<path d="M50.8432 55.8158H45.5532V61.1058H50.8432V55.8158Z" fill="black"/>
<path d="M50.6846 61.1058V55.8158H54.1759C55.1693 55.8158 55.9745 56.6211 55.9745 57.6144V61.1058H50.6846Z" fill="black"/>
<path d="M60.9473 61.1058V57.6144C60.9473 56.6211 61.7525 55.8158 62.7459 55.8158H64.4386C65.432 55.8158 66.2372 56.6211 66.2372 57.6144V61.1058H60.9473Z" fill="black"/>
<path d="M76.4994 55.8158H71.2095V61.1058H76.4994V55.8158Z" fill="black"/>
<path d="M86.7621 55.8158H81.4722V61.1058H86.7621V55.8158Z" fill="black"/>
<path d="M97.0249 55.8158V59.3072C97.0249 60.3005 96.2196 61.1058 95.2263 61.1058H93.5335C92.5402 61.1058 91.7349 60.3005 91.7349 59.3072V55.8158H97.0249Z" fill="black"/>
<path d="M112.418 55.8158V59.3072C112.418 60.3005 111.613 61.1058 110.62 61.1058H108.927C107.934 61.1058 107.128 60.3005 107.128 59.3072V55.8158H112.418Z" fill="black"/>
<path d="M115.936 61V61.1058H117.549V59.4923H117.444C117.444 60.3281 116.767 61 115.936 61Z" fill="black"/>
<path d="M122.681 55.8158H117.391V61.1058H122.681V55.8158Z" fill="black"/>
<path d="M126.199 61V61.1058H127.812V59.4923H127.706C127.706 60.3281 127.029 61 126.199 61Z" fill="black"/>
<path d="M132.943 61.1058H127.653V57.6144C127.653 56.6211 128.459 55.8158 129.452 55.8158H132.943V61.1058Z" fill="black"/>
<path d="M132.785 61.1058V55.8158H136.276C137.269 55.8158 138.075 56.6211 138.075 57.6144V61.1058H132.785Z" fill="black"/>
<path d="M151.855 61V61.1058H153.468V59.4923H153.363C153.363 60.3281 152.686 61 151.855 61Z" fill="black"/>
<path d="M153.31 61.1058V57.6144C153.31 56.6211 154.115 55.8158 155.109 55.8158H156.801C157.795 55.8158 158.6 56.6211 158.6 57.6144V61.1058H153.31Z" fill="black"/>
<path d="M19.897 66.237V62.7456C19.897 61.7523 20.7022 60.947 21.6956 60.947H23.3884C24.3817 60.947 25.1869 61.7523 25.1869 62.7456V66.237H19.897Z" fill="black"/>
<path d="M33.8359 66.1312V66.237H35.4494V64.6236H35.3436C35.3436 65.4594 34.6665 66.1312 33.8359 66.1312Z" fill="black"/>
<path d="M40.5805 60.947H35.2905V66.237H40.5805V60.947Z" fill="black"/>
<path d="M55.9745 60.947H50.6846V66.237H55.9745V60.947Z" fill="black"/>
<path d="M59.4922 66.1312V66.237H61.1056V64.6236H60.9998C60.9998 65.4594 60.3227 66.1312 59.4922 66.1312Z" fill="black"/>
<path d="M66.2372 60.947H60.9473V66.237H66.2372V60.947Z" fill="black"/>
<path d="M76.4995 60.947V66.237L73.0081 66.237C72.0148 66.237 71.2095 65.4317 71.2095 64.4384V60.947L76.4995 60.947Z" fill="black"/>
<path d="M81.6308 60.947H76.3408V66.237H81.6308V60.947Z" fill="black"/>
<path d="M81.4722 60.947H86.7621V64.4384C86.7621 65.4317 85.9569 66.237 84.9635 66.237H81.4722V60.947Z" fill="black"/>
<path d="M117.55 66.237H114.058C113.065 66.237 112.26 65.4317 112.26 64.4384V62.7456C112.26 61.7523 113.065 60.947 114.058 60.947H117.55V66.237Z" fill="black"/>
<path d="M122.681 60.947H117.391V66.237H122.681V60.947Z" fill="black"/>
<path d="M127.812 60.947H122.522V66.237H127.812V60.947Z" fill="black"/>
<path d="M132.943 60.947H127.653V66.237H132.943V60.947Z" fill="black"/>
<path d="M138.075 60.947H132.785V66.237H138.075V60.947Z" fill="black"/>
<path d="M143.206 60.947H137.916V66.237H143.206V60.947Z" fill="black"/>
<path d="M148.337 60.947H143.047V66.237H148.337V60.947Z" fill="black"/>
<path d="M153.469 60.947H148.179V66.237H153.469V60.947Z" fill="black"/>
<path d="M158.6 60.947H153.31V66.237H158.6V60.947Z" fill="black"/>
<path d="M158.441 66.237V60.947H161.933C162.926 60.947 163.731 61.7523 163.731 62.7456V66.237H158.441Z" fill="black"/>
<path d="M25.187 66.0783V69.5697C25.187 70.563 24.3818 71.3683 23.3884 71.3683L21.6956 71.3683C20.7023 71.3683 19.897 70.563 19.897 69.5697V66.0783L25.187 66.0783Z" fill="black"/>
<path d="M35.4497 71.3683H31.9583C30.965 71.3683 30.1597 70.563 30.1597 69.5697V67.8769C30.1597 66.8836 30.965 66.0783 31.9583 66.0783H35.4497V71.3683Z" fill="black"/>
<path d="M40.5805 66.0783H35.2905V71.3683H40.5805V66.0783Z" fill="black"/>
<path d="M50.8433 71.3683H47.3519C46.3585 71.3683 45.5533 70.563 45.5533 69.5697V67.8769C45.5533 66.8836 46.3585 66.0783 47.3519 66.0783H50.8433V71.3683Z" fill="black"/>
<path d="M55.9745 66.0783H50.6846V71.3683H55.9745V66.0783Z" fill="black"/>
<path d="M61.1059 66.0783H55.8159V71.3683H61.1059V66.0783Z" fill="black"/>
<path d="M66.2372 66.0783H60.9473V71.3683H66.2372V66.0783Z" fill="black"/>
<path d="M96.8657 67.5912V69.8606C96.8657 70.6965 97.5428 71.3683 98.3787 71.3683H100.648C101.489 71.3683 102.161 70.6912 102.161 69.8553V67.5912C102.156 66.7501 101.479 66.0783 100.643 66.0783H98.3787C97.5428 66.0783 96.8657 66.7554 96.8657 67.5912Z" fill="black"/>
<path d="M107.128 71.3683V67.8769C107.128 66.8836 107.934 66.0783 108.927 66.0783H110.62C111.613 66.0783 112.418 66.8836 112.418 67.8769V71.3683H107.128Z" fill="black"/>
<path d="M127.812 66.0783H122.522V71.3683H127.812V66.0783Z" fill="black"/>
<path d="M143.206 66.0783V69.5697C143.206 70.563 142.401 71.3683 141.407 71.3683L139.715 71.3683C138.721 71.3683 137.916 70.563 137.916 69.5697V66.0783L143.206 66.0783Z" fill="black"/>
<path d="M153.469 66.0783V69.5697C153.469 70.563 152.663 71.3683 151.67 71.3683L149.977 71.3683C148.984 71.3683 148.179 70.563 148.179 69.5697V66.0783L153.469 66.0783Z" fill="black"/>
<path d="M163.731 66.0783H158.441V71.3683H163.731V66.0783Z" fill="black"/>
<path d="M25.0283 76.4996V73.0082C25.0283 72.0149 25.8336 71.2096 26.8269 71.2096H28.5197C29.513 71.2096 30.3183 72.0149 30.3183 73.0082V76.4996H25.0283Z" fill="black"/>
<path d="M40.5805 71.2096H35.2905V76.4996H40.5805V71.2096Z" fill="black"/>
<path d="M55.9745 71.2096H50.6846V76.4996H55.9745V71.2096Z" fill="black"/>
<path d="M66.2372 71.2096H60.9473V76.4996H66.2372V71.2096Z" fill="black"/>
<path d="M66.0781 76.4996V71.2096H69.5695C70.5628 71.2096 71.3681 72.0149 71.3681 73.0082V76.4996H66.0781Z" fill="black"/>
<path d="M74.8862 76.3937V76.4995H76.4997V74.8861H76.3939C76.3939 75.7219 75.7168 76.3937 74.8862 76.3937Z" fill="black"/>
<path d="M76.3408 76.4996V73.0082C76.3408 72.0149 77.1461 71.2096 78.1394 71.2096H79.8322C80.8255 71.2096 81.6308 72.0149 81.6308 73.0082V76.4996H76.3408Z" fill="black"/>
<path d="M91.7349 72.7225V74.9919C91.7349 75.8277 92.412 76.4996 93.2478 76.4996H95.5172C96.3583 76.4996 97.0301 75.8224 97.0301 74.9866V72.7225C97.0248 71.8814 96.3477 71.2096 95.5119 71.2096H93.2478C92.412 71.2096 91.7349 71.8867 91.7349 72.7225Z" fill="black"/>
<path d="M112.418 71.2096H107.128V76.4996H112.418V71.2096Z" fill="black"/>
<path d="M112.26 76.4996V73.0082C112.26 72.0149 113.065 71.2096 114.058 71.2096H115.751C116.744 71.2096 117.55 72.0149 117.55 73.0082V76.4996H112.26Z" fill="black"/>
<path d="M127.812 71.2096V74.701C127.812 75.6943 127.007 76.4996 126.014 76.4996L124.321 76.4996C123.328 76.4996 122.523 75.6943 122.523 74.701V71.2096L127.812 71.2096Z" fill="black"/>
<path d="M132.785 76.4996V73.0082C132.785 72.0149 133.59 71.2096 134.583 71.2096H136.276C137.269 71.2096 138.075 72.0149 138.075 73.0082V76.4996H132.785Z" fill="black"/>
<path d="M143.047 72.7225V74.9919C143.047 75.8277 143.724 76.4996 144.56 76.4996H146.83C147.671 76.4996 148.343 75.8224 148.343 74.9866V72.7225C148.337 71.8814 147.66 71.2096 146.824 71.2096H144.56C143.724 71.2096 143.047 71.8867 143.047 72.7225Z" fill="black"/>
<path d="M158.6 76.4996H155.109C154.115 76.4996 153.31 75.6943 153.31 74.701V73.0082C153.31 72.0149 154.115 71.2096 155.109 71.2096H158.6V76.4996Z" fill="black"/>
<path d="M163.731 71.2096H158.441V76.4996H163.731V71.2096Z" fill="black"/>
<path d="M14.7656 77.8538V80.1232C14.7656 80.959 15.4427 81.6308 16.2786 81.6308H18.548C19.3891 81.6308 20.0609 80.9537 20.0609 80.1179V77.8538C20.0556 77.0127 19.3785 76.3409 18.5427 76.3409H16.2786C15.4427 76.3409 14.7656 77.018 14.7656 77.8538Z" fill="black"/>
<path d="M30.3183 76.3409H25.0283V81.6308H30.3183V76.3409Z" fill="black"/>
<path d="M40.5806 76.3409V79.8323C40.5806 80.8256 39.7753 81.6308 38.782 81.6308L37.0892 81.6308C36.0959 81.6308 35.2906 80.8256 35.2906 79.8323V76.3409L40.5806 76.3409Z" fill="black"/>
<path d="M50.8433 81.6309H47.3519C46.3585 81.6309 45.5533 80.8256 45.5533 79.8323V78.1395C45.5533 77.1461 46.3585 76.3409 47.3519 76.3409H50.8433V81.6309Z" fill="black"/>
<path d="M55.9745 76.3409H50.6846V81.6308H55.9745V76.3409Z" fill="black"/>
<path d="M61.1059 76.3409H55.8159V81.6308H61.1059V76.3409Z" fill="black"/>
<path d="M66.2372 76.3409H60.9473V81.6308H66.2372V76.3409Z" fill="black"/>
<path d="M71.3681 76.3409H66.0781V81.6308H71.3681V76.3409Z" fill="black"/>
<path d="M76.4994 76.3409H71.2095V81.6308H76.4994V76.3409Z" fill="black"/>
<path d="M81.6308 76.3409H76.3408V81.6308H81.6308V76.3409Z" fill="black"/>
<path d="M86.6035 77.8538V80.1232C86.6035 80.959 87.2806 81.6308 88.1164 81.6308H90.3858C91.2269 81.6308 91.8988 80.9537 91.8988 80.1179V77.8538C91.8935 77.0127 91.2164 76.3409 90.3806 76.3409H88.1164C87.2806 76.3409 86.6035 77.018 86.6035 77.8538Z" fill="black"/>
<path d="M96.8657 77.8538V80.1232C96.8657 80.959 97.5428 81.6308 98.3787 81.6308H100.648C101.489 81.6308 102.161 80.9537 102.161 80.1179V77.8538C102.156 77.0127 101.479 76.3409 100.643 76.3409H98.3787C97.5428 76.3409 96.8657 77.018 96.8657 77.8538Z" fill="black"/>
<path d="M112.418 76.3409H107.128V81.6308H112.418V76.3409Z" fill="black"/>
<path d="M117.391 77.8538V80.1232C117.391 80.959 118.068 81.6308 118.904 81.6308H121.173C122.015 81.6308 122.686 80.9537 122.686 80.1179V77.8538C122.681 77.0127 122.004 76.3409 121.168 76.3409H118.904C118.068 76.3409 117.391 77.018 117.391 77.8538Z" fill="black"/>
<path d="M138.075 76.3409V79.8323C138.075 80.8256 137.269 81.6308 136.276 81.6308L134.583 81.6308C133.59 81.6308 132.785 80.8256 132.785 79.8323V76.3409L138.075 76.3409Z" fill="black"/>
<path d="M163.731 76.3409H158.441V81.6308H163.731V76.3409Z" fill="black"/>
<path d="M30.3184 81.4721V84.9635C30.3184 85.9568 29.5131 86.7621 28.5198 86.7621L26.827 86.7621C25.8336 86.7621 25.0284 85.9568 25.0284 84.9635V81.4721L30.3184 81.4721Z" fill="black"/>
<path d="M55.9745 81.4721H50.6846V86.7621H55.9745V81.4721Z" fill="black"/>
<path d="M61.1059 81.4721H55.8159V86.7621H61.1059V81.4721Z" fill="black"/>
<path d="M60.9473 81.4721H66.2372V84.9635C66.2372 85.9568 65.432 86.7621 64.4386 86.7621H60.9473V81.4721Z" fill="black"/>
<path d="M81.6308 81.4721H76.3408V86.7621H81.6308V81.4721Z" fill="black"/>
<path d="M112.418 81.4721V84.9635C112.418 85.9568 111.613 86.7621 110.62 86.7621L108.927 86.7621C107.934 86.7621 107.128 85.9568 107.128 84.9635V81.4721L112.418 81.4721Z" fill="black"/>
<path d="M126.199 86.6563V86.7621H127.812V85.1487H127.706C127.706 85.9845 127.029 86.6563 126.199 86.6563Z" fill="black"/>
<path d="M127.653 86.7621V83.2707C127.653 82.2774 128.459 81.4721 129.452 81.4721H131.145C132.138 81.4721 132.943 82.2774 132.943 83.2707V86.7621H127.653Z" fill="black"/>
<path d="M137.916 86.7621V83.2707C137.916 82.2774 138.721 81.4721 139.715 81.4721H141.407C142.401 81.4721 143.206 82.2774 143.206 83.2707V86.7621H137.916Z" fill="black"/>
<path d="M153.469 86.7621H149.977C148.984 86.7621 148.179 85.9568 148.179 84.9635V83.2707C148.179 82.2774 148.984 81.4721 149.977 81.4721H153.469V86.7621Z" fill="black"/>
<path d="M158.6 81.4721H153.31V86.7621H158.6V81.4721Z" fill="black"/>
<path d="M163.731 81.4721H158.441V86.7621H163.731V81.4721Z" fill="black"/>
<path d="M19.897 88.1163V90.3857C19.897 91.2215 20.5741 91.8934 21.4099 91.8934H23.6793C24.5204 91.8934 25.1922 91.2162 25.1922 90.3804V88.1163C25.1869 87.2752 24.5098 86.6034 23.674 86.6034H21.4099C20.5741 86.6034 19.897 87.2805 19.897 88.1163Z" fill="black"/>
<path d="M33.8359 91.7875V91.8933H35.4494V90.2799H35.3436C35.3436 91.1157 34.6665 91.7875 33.8359 91.7875Z" fill="black"/>
<path d="M35.2905 91.8934V88.402C35.2905 87.4087 36.0958 86.6034 37.0891 86.6034H38.7819C39.7752 86.6034 40.5805 87.4087 40.5805 88.402V91.8934H35.2905Z" fill="black"/>
<path d="M50.8433 91.8934H47.3519C46.3585 91.8934 45.5533 91.0881 45.5533 90.0948V88.402C45.5533 87.4087 46.3585 86.6034 47.3519 86.6034H50.8433V91.8934Z" fill="black"/>
<path d="M55.9745 86.6034H50.6846V91.8934H55.9745V86.6034Z" fill="black"/>
<path d="M55.8159 86.6034H61.1059V90.0948C61.1059 91.0881 60.3006 91.8934 59.3073 91.8934H55.8159V86.6034Z" fill="black"/>
<path d="M81.6309 86.6034V90.0948C81.6309 91.0881 80.8256 91.8934 79.8323 91.8934L78.1395 91.8934C77.1461 91.8934 76.3409 91.0881 76.3409 90.0948V86.6034L81.6309 86.6034Z" fill="black"/>
<path d="M86.6035 88.1163V90.3857C86.6035 91.2215 87.2806 91.8934 88.1164 91.8934H90.3858C91.2269 91.8934 91.8988 91.2162 91.8988 90.3804V88.1163C91.8935 87.2752 91.2164 86.6034 90.3806 86.6034H88.1164C87.2806 86.6034 86.6035 87.2805 86.6035 88.1163Z" fill="black"/>
<path d="M102.156 91.8934H98.6644C97.671 91.8934 96.8658 91.0881 96.8658 90.0948V88.402C96.8658 87.4087 97.671 86.6034 98.6644 86.6034H102.156V91.8934Z" fill="black"/>
<path d="M101.997 91.8934V86.6034H105.488C106.482 86.6034 107.287 87.4087 107.287 88.402V91.8934H101.997Z" fill="black"/>
<path d="M122.681 91.8934H119.19C118.196 91.8934 117.391 91.0881 117.391 90.0948V88.402C117.391 87.4087 118.196 86.6034 119.19 86.6034H122.681V91.8934Z" fill="black"/>
<path d="M127.812 86.6034H122.522V91.8934H127.812V86.6034Z" fill="black"/>
<path d="M132.943 86.6034H127.653V91.8934H132.943V86.6034Z" fill="black"/>
<path d="M143.206 86.6034V90.0948C143.206 91.0881 142.401 91.8934 141.407 91.8934L139.715 91.8934C138.721 91.8934 137.916 91.0881 137.916 90.0948V86.6034L143.206 86.6034Z" fill="black"/>
<path d="M163.731 86.6034V90.0948C163.731 91.0881 162.926 91.8934 161.933 91.8934L160.24 91.8934C159.247 91.8934 158.441 91.0881 158.441 90.0948V86.6034L163.731 86.6034Z" fill="black"/>
<path d="M35.4497 97.0247H31.9583C30.965 97.0247 30.1597 96.2194 30.1597 95.2261V93.5333C30.1597 92.5399 30.965 91.7347 31.9583 91.7347H35.4497V97.0247Z" fill="black"/>
<path d="M35.2905 91.7347H40.5805V95.2261C40.5805 96.2194 39.7752 97.0246 38.7819 97.0246H35.2905V91.7347Z" fill="black"/>
<path d="M55.9746 91.7347V95.2261C55.9746 96.2194 55.1694 97.0246 54.176 97.0246L52.4832 97.0246C51.4899 97.0246 50.6846 96.2194 50.6846 95.2261V91.7347L55.9746 91.7347Z" fill="black"/>
<path d="M59.4922 96.9188V97.0246H61.1056V95.4112H60.9998C60.9998 96.247 60.3227 96.9188 59.4922 96.9188Z" fill="black"/>
<path d="M60.9473 97.0247V93.5333C60.9473 92.5399 61.7525 91.7347 62.7459 91.7347H64.4386C65.432 91.7347 66.2372 92.5399 66.2372 93.5333V97.0247H60.9473Z" fill="black"/>
<path d="M71.2095 97.0247V93.5333C71.2095 92.5399 72.0147 91.7347 73.0081 91.7347H74.7009C75.6942 91.7347 76.4994 92.5399 76.4994 93.5333V97.0247H71.2095Z" fill="black"/>
<path d="M91.7349 93.2476V95.517C91.7349 96.3528 92.412 97.0246 93.2478 97.0246H95.5172C96.3583 97.0246 97.0301 96.3475 97.0301 95.5117V93.2476C97.0248 92.4065 96.3477 91.7347 95.5119 91.7347H93.2478C92.412 91.7347 91.7349 92.4118 91.7349 93.2476Z" fill="black"/>
<path d="M107.287 91.7347H101.997V97.0246H107.287V91.7347Z" fill="black"/>
<path d="M112.418 91.7347H107.128V97.0246H112.418V91.7347Z" fill="black"/>
<path d="M112.26 97.0247V91.7347H115.751C116.744 91.7347 117.55 92.5399 117.55 93.5333V97.0247H112.26Z" fill="black"/>
<path d="M121.067 96.9188V97.0246H122.681V95.4112H122.575C122.575 96.247 121.898 96.9188 121.067 96.9188Z" fill="black"/>
<path d="M127.812 91.7347H122.522V97.0246H127.812V91.7347Z" fill="black"/>
<path d="M132.943 91.7347H127.653V97.0246H132.943V91.7347Z" fill="black"/>
<path d="M132.785 97.0247V93.5333C132.785 92.5399 133.59 91.7347 134.583 91.7347H136.276C137.269 91.7347 138.075 92.5399 138.075 93.5333V97.0247H132.785Z" fill="black"/>
<path d="M143.047 93.2476V95.517C143.047 96.3528 143.724 97.0246 144.56 97.0246H146.83C147.671 97.0246 148.343 96.3475 148.343 95.5117V93.2476C148.337 92.4065 147.66 91.7347 146.824 91.7347H144.56C143.724 91.7347 143.047 92.4118 143.047 93.2476Z" fill="black"/>
<path d="M153.31 97.0247V93.5333C153.31 92.5399 154.115 91.7347 155.109 91.7347H156.801C157.795 91.7347 158.6 92.5399 158.6 93.5333V97.0247H153.31Z" fill="black"/>
<path d="M14.7656 102.156V98.6646C14.7656 97.6712 15.5709 96.866 16.5642 96.866H18.257C19.2503 96.866 20.0556 97.6712 20.0556 98.6646V102.156H14.7656Z" fill="black"/>
<path d="M25.0283 98.3789V100.648C25.0283 101.484 25.7054 102.156 26.5413 102.156H28.8106C29.6518 102.156 30.3236 101.479 30.3236 100.643V98.3789C30.3183 97.5378 29.6412 96.866 28.8054 96.866H26.5413C25.7054 96.866 25.0283 97.5431 25.0283 98.3789Z" fill="black"/>
<path d="M45.7119 102.156H40.4219V98.6646C40.4219 97.6712 41.2272 96.866 42.2205 96.866H45.7119V102.156Z" fill="black"/>
<path d="M45.5532 102.156V98.6646C45.5532 97.6712 46.3585 96.866 47.3518 96.866H49.0446C50.0379 96.866 50.8432 97.6712 50.8432 98.6646V102.156H45.5532Z" fill="black"/>
<path d="M61.106 102.156H55.816V98.6646C55.816 97.6712 56.6212 96.866 57.6146 96.866H61.106V102.156Z" fill="black"/>
<path d="M66.2372 96.866H60.9473V102.156H66.2372V96.866Z" fill="black"/>
<path d="M69.7549 102.05V102.156H71.3683V100.542H71.2625C71.2625 101.378 70.5854 102.05 69.7549 102.05Z" fill="black"/>
<path d="M76.4994 96.866H71.2095V102.156H76.4994V96.866Z" fill="black"/>
<path d="M76.3408 102.156V96.866H79.8322C80.8255 96.866 81.6308 97.6712 81.6308 98.6646V102.156H76.3408Z" fill="black"/>
<path d="M86.6035 98.3789V100.648C86.6035 101.484 87.2806 102.156 88.1164 102.156H90.3858C91.2269 102.156 91.8988 101.479 91.8988 100.643V98.3789C91.8935 97.5378 91.2164 96.866 90.3806 96.866H88.1164C87.2806 96.866 86.6035 97.5431 86.6035 98.3789Z" fill="black"/>
<path d="M100.542 102.05V102.156H102.156V100.542H102.05C102.05 101.378 101.373 102.05 100.542 102.05Z" fill="black"/>
<path d="M107.287 96.866H101.997V102.156H107.287V96.866Z" fill="black"/>
<path d="M117.55 96.866H112.26V102.156H117.55V96.866Z" fill="black"/>
<path d="M122.681 96.866H117.391V102.156H122.681V96.866Z" fill="black"/>
<path d="M122.522 96.866H127.812V100.357C127.812 101.351 127.007 102.156 126.014 102.156H122.522V96.866Z" fill="black"/>
<path d="M136.461 102.05V102.156H138.075V100.542H137.969C137.969 101.378 137.292 102.05 136.461 102.05Z" fill="black"/>
<path d="M137.916 102.156V98.6646C137.916 97.6712 138.721 96.866 139.715 96.866H141.407C142.401 96.866 143.206 97.6712 143.206 98.6646V102.156H137.916Z" fill="black"/>
<path d="M158.6 96.866V102.156L155.109 102.156C154.115 102.156 153.31 101.351 153.31 100.357V96.866L158.6 96.866Z" fill="black"/>
<path d="M158.441 102.156V96.866H161.933C162.926 96.866 163.731 97.6712 163.731 98.6646V102.156H158.441Z" fill="black"/>
<path d="M20.0557 101.997V105.489C20.0557 106.482 19.2504 107.287 18.2571 107.287L16.5643 107.287C15.571 107.287 14.7657 106.482 14.7657 105.489V101.997L20.0557 101.997Z" fill="black"/>
<path d="M30.1597 103.51V105.78C30.1597 106.615 30.8368 107.287 31.6726 107.287H33.942C34.7831 107.287 35.4549 106.61 35.4549 105.774V103.51C35.4496 102.669 34.7725 101.997 33.9367 101.997H31.6726C30.8368 101.997 30.1597 102.674 30.1597 103.51Z" fill="black"/>
<path d="M45.7119 101.997V105.489C45.7119 106.482 44.9067 107.287 43.9133 107.287L42.2205 107.287C41.2272 107.287 40.4219 106.482 40.4219 105.489V101.997L45.7119 101.997Z" fill="black"/>
<path d="M54.3608 107.181V107.287H55.9743V105.674H55.8685C55.8685 106.51 55.1914 107.181 54.3608 107.181Z" fill="black"/>
<path d="M61.1059 101.997H55.8159V107.287H61.1059V101.997Z" fill="black"/>
<path d="M66.2372 101.997H60.9473V107.287H66.2372V101.997Z" fill="black"/>
<path d="M71.3681 101.997H66.0781V107.287H71.3681V101.997Z" fill="black"/>
<path d="M76.4994 101.997H71.2095V107.287H76.4994V101.997Z" fill="black"/>
<path d="M81.6308 101.997H76.3408V107.287H81.6308V101.997Z" fill="black"/>
<path d="M81.4722 107.287V101.997H84.9635C85.9569 101.997 86.7621 102.802 86.7621 103.796V107.287H81.4722Z" fill="black"/>
<path d="M102.156 107.287H98.6644C97.671 107.287 96.8658 106.482 96.8658 105.489V103.796C96.8658 102.802 97.671 101.997 98.6644 101.997H102.156V107.287Z" fill="black"/>
<path d="M107.287 101.997H101.997V107.287H107.287V101.997Z" fill="black"/>
<path d="M117.55 101.997V105.489C117.55 106.482 116.745 107.287 115.751 107.287L114.058 107.287C113.065 107.287 112.26 106.482 112.26 105.489V101.997L117.55 101.997Z" fill="black"/>
<path d="M132.943 107.287H129.452C128.459 107.287 127.653 106.482 127.653 105.489V103.796C127.653 102.802 128.459 101.997 129.452 101.997H132.943V107.287Z" fill="black"/>
<path d="M138.075 101.997H132.785V107.287H138.075V101.997Z" fill="black"/>
<path d="M143.206 101.997H137.916V107.287H143.206V101.997Z" fill="black"/>
<path d="M148.179 103.51V105.78C148.179 106.615 148.856 107.287 149.692 107.287H151.961C152.802 107.287 153.474 106.61 153.474 105.774V103.51C153.469 102.669 152.792 101.997 151.956 101.997H149.692C148.856 101.997 148.179 102.674 148.179 103.51Z" fill="black"/>
<path d="M163.731 101.997H158.441V107.287H163.731V101.997Z" fill="black"/>
<path d="M50.8433 112.418H47.3519C46.3585 112.418 45.5533 111.613 45.5533 110.62V108.927C45.5533 107.934 46.3585 107.128 47.3519 107.128H50.8433V112.418Z" fill="black"/>
<path d="M55.9745 107.128H50.6846V112.418H55.9745V107.128Z" fill="black"/>
<path d="M55.8159 107.128H61.1059V110.62C61.1059 111.613 60.3006 112.418 59.3073 112.418H55.8159V107.128Z" fill="black"/>
<path d="M76.4994 107.128H71.2095V112.418H76.4994V107.128Z" fill="black"/>
<path d="M81.6308 107.128H76.3408V112.418H81.6308V107.128Z" fill="black"/>
<path d="M86.7621 107.128H81.4722V112.418H86.7621V107.128Z" fill="black"/>
<path d="M107.287 107.128V110.62C107.287 111.613 106.482 112.418 105.489 112.418H103.796C102.802 112.418 101.997 111.613 101.997 110.62V107.128H107.287Z" fill="black"/>
<path d="M117.391 108.641V110.911C117.391 111.747 118.068 112.418 118.904 112.418H121.173C122.015 112.418 122.686 111.741 122.686 110.906V108.641C122.681 107.8 122.004 107.128 121.168 107.128H118.904C118.068 107.128 117.391 107.806 117.391 108.641Z" fill="black"/>
<path d="M143.206 107.128V112.418H139.715C138.721 112.418 137.916 111.613 137.916 110.62V107.128H143.206Z" fill="black"/>
<path d="M143.047 112.418V108.927C143.047 107.934 143.853 107.128 144.846 107.128H146.539C147.532 107.128 148.337 107.934 148.337 108.927V112.418H143.047Z" fill="black"/>
<path d="M163.731 107.128V110.62C163.731 111.613 162.926 112.418 161.933 112.418H160.24C159.247 112.418 158.441 111.613 158.441 110.62V107.128H163.731Z" fill="black"/>
<path d="M23.5732 117.444V117.55H25.1867V115.936H25.0809C25.0809 116.772 24.4038 117.444 23.5732 117.444Z" fill="black"/>
<path d="M30.3184 117.55H25.0284V114.058C25.0284 113.065 25.8336 112.26 26.827 112.26H30.3184V117.55Z" fill="black"/>
<path d="M35.4496 112.26H30.1597V117.55H35.4496V112.26Z" fill="black"/>
<path d="M40.5805 112.26H35.2905V117.55H40.5805V112.26Z" fill="black"/>
<path d="M40.4219 117.55V112.26H43.9133C44.9066 112.26 45.7118 113.065 45.7118 114.058V117.55H40.4219Z" fill="black"/>
<path d="M76.4994 112.26H71.2095V117.55H76.4994V112.26Z" fill="black"/>
<path d="M81.6308 112.26H76.3408V117.55H81.6308V112.26Z" fill="black"/>
<path d="M86.7621 112.26H81.4722V117.55H86.7621V112.26Z" fill="black"/>
<path d="M97.0249 117.55H93.5335C92.5402 117.55 91.7349 116.744 91.7349 115.751V114.058C91.7349 113.065 92.5402 112.26 93.5335 112.26H97.0249V117.55Z" fill="black"/>
<path d="M96.8657 117.55V114.058C96.8657 113.065 97.671 112.26 98.6643 112.26H100.357C101.35 112.26 102.156 113.065 102.156 114.058V117.55H96.8657Z" fill="black"/>
<path d="M107.128 117.55V114.058C107.128 113.065 107.934 112.26 108.927 112.26H110.62C111.613 112.26 112.418 113.065 112.418 114.058V117.55H107.128Z" fill="black"/>
<path d="M131.33 117.444V117.55H132.944V115.936H132.838C132.838 116.772 132.161 117.444 131.33 117.444Z" fill="black"/>
<path d="M132.785 117.55V114.058C132.785 113.065 133.59 112.26 134.583 112.26H136.276C137.269 112.26 138.075 113.065 138.075 114.058V117.55H132.785Z" fill="black"/>
<path d="M153.31 117.55V114.058C153.31 113.065 154.115 112.26 155.109 112.26H156.801C157.795 112.26 158.6 113.065 158.6 114.058V117.55H153.31Z" fill="black"/>
<path d="M20.0557 122.681H16.5643C15.571 122.681 14.7657 121.876 14.7657 120.882V119.19C14.7657 118.196 15.571 117.391 16.5643 117.391H20.0557V122.681Z" fill="black"/>
<path d="M25.1869 117.391H19.897V122.681H25.1869V117.391Z" fill="black"/>
<path d="M25.0283 117.391H30.3183V120.882C30.3183 121.876 29.513 122.681 28.5197 122.681H25.0283V117.391Z" fill="black"/>
<path d="M40.5806 117.391V122.681L37.0892 122.681C36.0959 122.681 35.2906 121.876 35.2906 120.882V117.391L40.5806 117.391Z" fill="black"/>
<path d="M45.7118 117.391H40.4219V122.681H45.7118V117.391Z" fill="black"/>
<path d="M45.5532 122.681V119.19C45.5532 118.196 46.3585 117.391 47.3518 117.391H49.0446C50.0379 117.391 50.8432 118.196 50.8432 119.19V122.681H45.5532Z" fill="black"/>
<path d="M55.8159 122.681V119.19C55.8159 118.196 56.6212 117.391 57.6145 117.391H59.3073C60.3006 117.391 61.1059 118.196 61.1059 119.19V122.681H55.8159Z" fill="black"/>
<path d="M76.4995 117.391V120.882C76.4995 121.876 75.6943 122.681 74.7009 122.681L73.0081 122.681C72.0148 122.681 71.2095 121.876 71.2095 120.882V117.391L76.4995 117.391Z" fill="black"/>
<path d="M86.7622 117.391V120.882C86.7622 121.876 85.957 122.681 84.9636 122.681L83.2708 122.681C82.2775 122.681 81.4722 121.876 81.4722 120.882V117.391L86.7622 117.391Z" fill="black"/>
<path d="M112.418 117.391V120.882C112.418 121.876 111.613 122.681 110.62 122.681L108.927 122.681C107.934 122.681 107.128 121.876 107.128 120.882V117.391L112.418 117.391Z" fill="black"/>
<path d="M115.936 122.575V122.681H117.549V121.068H117.444C117.444 121.903 116.767 122.575 115.936 122.575Z" fill="black"/>
<path d="M122.681 122.681H117.391V119.19C117.391 118.196 118.196 117.391 119.19 117.391H122.681V122.681Z" fill="black"/>
<path d="M127.812 117.391H122.522V122.681H127.812V117.391Z" fill="black"/>
<path d="M132.943 117.391H127.653V122.681H132.943V117.391Z" fill="black"/>
<path d="M138.075 117.391H132.785V122.681H138.075V117.391Z" fill="black"/>
<path d="M143.206 117.391H137.916V122.681H143.206V117.391Z" fill="black"/>
<path d="M143.047 122.681V119.19C143.047 118.196 143.853 117.391 144.846 117.391H146.539C147.532 117.391 148.337 118.196 148.337 119.19V122.681H143.047Z" fill="black"/>
<path d="M158.6 117.391V120.882C158.6 121.876 157.795 122.681 156.802 122.681L155.109 122.681C154.115 122.681 153.31 121.876 153.31 120.882V117.391L158.6 117.391Z" fill="black"/>
<path d="M61.1059 122.522H55.8159V127.812H61.1059V122.522Z" fill="black"/>
<path d="M66.2372 122.522H60.9473V127.812H66.2372V122.522Z" fill="black"/>
<path d="M66.0781 127.812V124.321C66.0781 123.328 66.8834 122.522 67.8767 122.522H69.5695C70.5628 122.522 71.3681 123.328 71.3681 124.321V127.812H66.0781Z" fill="black"/>
<path d="M76.3408 127.812V124.321C76.3408 123.328 77.1461 122.522 78.1394 122.522H79.8322C80.8255 122.522 81.6308 123.328 81.6308 124.321V127.812H76.3408Z" fill="black"/>
<path d="M91.7349 124.035V126.305C91.7349 127.14 92.412 127.812 93.2478 127.812H95.5172C96.3583 127.812 97.0301 127.135 97.0301 126.299V124.035C97.0248 123.194 96.3477 122.522 95.5119 122.522H93.2478C92.412 122.522 91.7349 123.199 91.7349 124.035Z" fill="black"/>
<path d="M101.997 124.035V126.305C101.997 127.14 102.674 127.812 103.51 127.812H105.779C106.621 127.812 107.292 127.135 107.292 126.299V124.035C107.287 123.194 106.61 122.522 105.774 122.522H103.51C102.674 122.522 101.997 123.199 101.997 124.035Z" fill="black"/>
<path d="M117.55 127.812H112.26V124.321C112.26 123.328 113.065 122.522 114.058 122.522H117.55V127.812Z" fill="black"/>
<path d="M122.681 122.522H117.391V127.812H122.681V122.522Z" fill="black"/>
<path d="M143.206 122.522H137.916V127.812H143.206V122.522Z" fill="black"/>
<path d="M148.179 124.035V126.305C148.179 127.14 148.856 127.812 149.692 127.812H151.961C152.802 127.812 153.474 127.135 153.474 126.299V124.035C153.469 123.194 152.792 122.522 151.956 122.522H149.692C148.856 122.522 148.179 123.199 148.179 124.035Z" fill="black"/>
<path d="M156.986 127.706V127.812H158.6V126.199H158.494C158.494 127.035 157.817 127.706 156.986 127.706Z" fill="black"/>
<path d="M158.441 127.812V124.321C158.441 123.328 159.247 122.522 160.24 122.522H161.933C162.926 122.522 163.731 123.328 163.731 124.321V127.812H158.441Z" fill="black"/>
<path d="M61.1059 127.654H55.8159V132.944H61.1059V127.654Z" fill="black"/>
<path d="M81.6309 127.654V132.944L78.1395 132.944C77.1461 132.944 76.3409 132.138 76.3409 131.145V127.654L81.6309 127.654Z" fill="black"/>
<path d="M81.4722 132.944V129.452C81.4722 128.459 82.2774 127.654 83.2708 127.654H84.9635C85.9569 127.654 86.7621 128.459 86.7621 129.452V132.944H81.4722Z" fill="black"/>
<path d="M96.8657 132.944V129.452C96.8657 128.459 97.671 127.654 98.6643 127.654H100.357C101.35 127.654 102.156 128.459 102.156 129.452V132.944H96.8657Z" fill="black"/>
<path d="M110.805 132.838V132.944H112.419V131.33H112.313C112.313 132.166 111.636 132.838 110.805 132.838Z" fill="black"/>
<path d="M117.55 127.654H112.26V132.944H117.55V127.654Z" fill="black"/>
<path d="M122.681 127.654H117.391V132.944H122.681V127.654Z" fill="black"/>
<path d="M127.653 129.166V131.436C127.653 132.272 128.33 132.944 129.166 132.944H131.436C132.277 132.944 132.949 132.266 132.949 131.431V129.166C132.943 128.325 132.266 127.654 131.43 127.654H129.166C128.33 127.654 127.653 128.331 127.653 129.166Z" fill="black"/>
<path d="M143.206 127.654H137.916V132.944H143.206V127.654Z" fill="black"/>
<path d="M158.6 132.944H155.109C154.115 132.944 153.31 132.138 153.31 131.145V129.452C153.31 128.459 154.115 127.654 155.109 127.654H158.6V132.944Z" fill="black"/>
<path d="M158.441 127.654H163.731V131.145C163.731 132.138 162.926 132.944 161.933 132.944H158.441V127.654Z" fill="black"/>
<path d="M61.1059 132.785H55.8159V138.075H61.1059V132.785Z" fill="black"/>
<path d="M102.156 132.785V136.276C102.156 137.27 101.351 138.075 100.357 138.075L98.6644 138.075C97.671 138.075 96.8658 137.27 96.8658 136.276V132.785L102.156 132.785Z" fill="black"/>
<path d="M112.418 138.075H108.927C107.934 138.075 107.128 137.27 107.128 136.276V134.583C107.128 133.59 107.934 132.785 108.927 132.785H112.418V138.075Z" fill="black"/>
<path d="M117.55 132.785H112.26V138.075H117.55V132.785Z" fill="black"/>
<path d="M122.681 132.785H117.391V138.075H122.681V132.785Z" fill="black"/>
<path d="M136.461 137.969V138.075H138.075V136.461H137.969C137.969 137.297 137.292 137.969 136.461 137.969Z" fill="black"/>
<path d="M143.206 132.785H137.916V138.075H143.206V132.785Z" fill="black"/>
<path d="M143.047 138.075V134.583C143.047 133.59 143.853 132.785 144.846 132.785H146.539C147.532 132.785 148.337 133.59 148.337 134.583V138.075H143.047Z" fill="black"/>
<path d="M61.106 137.916V141.407C61.106 142.401 60.3007 143.206 59.3074 143.206L57.6146 143.206C56.6212 143.206 55.816 142.401 55.816 141.407V137.916L61.106 137.916Z" fill="black"/>
<path d="M66.0781 139.429V141.698C66.0781 142.534 66.7552 143.206 67.5911 143.206H69.8605C70.7016 143.206 71.3734 142.529 71.3734 141.693V139.429C71.3681 138.588 70.691 137.916 69.8552 137.916H67.5911C66.7552 137.916 66.0781 138.593 66.0781 139.429Z" fill="black"/>
<path d="M81.6309 143.206H78.1395C77.1461 143.206 76.3409 142.401 76.3409 141.407V139.715C76.3409 138.721 77.1461 137.916 78.1395 137.916H81.6309V143.206Z" fill="black"/>
<path d="M86.7621 137.916H81.4722V143.206H86.7621V137.916Z" fill="black"/>
<path d="M86.6035 143.206V137.916H90.0949C91.0882 137.916 91.8935 138.721 91.8935 139.715V143.206H86.6035Z" fill="black"/>
<path d="M117.55 137.916V143.206L114.058 143.206C113.065 143.206 112.26 142.401 112.26 141.407V137.916L117.55 137.916Z" fill="black"/>
<path d="M122.681 137.916H117.391V143.206H122.681V137.916Z" fill="black"/>
<path d="M127.812 137.916H122.522V143.206H127.812V137.916Z" fill="black"/>
<path d="M132.943 137.916H127.653V143.206H132.943V137.916Z" fill="black"/>
<path d="M138.075 137.916H132.785V143.206H138.075V137.916Z" fill="black"/>
<path d="M137.916 137.916H143.206V141.407C143.206 142.401 142.401 143.206 141.407 143.206H137.916V137.916Z" fill="black"/>
<path d="M158.441 139.429V141.698C158.441 142.534 159.119 143.206 159.954 143.206H162.224C163.065 143.206 163.737 142.529 163.737 141.693V139.429C163.731 138.588 163.054 137.916 162.218 137.916H159.954C159.119 137.916 158.441 138.593 158.441 139.429Z" fill="black"/>
<path d="M60.9473 144.56V146.83C60.9473 147.666 61.6244 148.337 62.4602 148.337H64.7296C65.5707 148.337 66.2425 147.66 66.2425 146.824V144.56C66.2372 143.719 65.5601 143.047 64.7243 143.047H62.4602C61.6244 143.047 60.9473 143.724 60.9473 144.56Z" fill="black"/>
<path d="M69.7549 148.232V148.337H71.3683V146.724H71.2625C71.2625 147.56 70.5854 148.232 69.7549 148.232Z" fill="black"/>
<path d="M71.2095 148.337V144.846C71.2095 143.853 72.0147 143.047 73.0081 143.047H74.7009C75.6942 143.047 76.4994 143.853 76.4994 144.846V148.337H71.2095Z" fill="black"/>
<path d="M86.7622 143.047V148.337L83.2708 148.337C82.2775 148.337 81.4722 147.532 81.4722 146.539V143.047L86.7622 143.047Z" fill="black"/>
<path d="M91.8935 143.047H86.6035V148.337H91.8935V143.047Z" fill="black"/>
<path d="M107.287 148.337H103.796C102.802 148.337 101.997 147.532 101.997 146.539V144.846C101.997 143.853 102.802 143.047 103.796 143.047H107.287V148.337Z" fill="black"/>
<path d="M107.128 148.337V143.047H110.62C111.613 143.047 112.418 143.853 112.418 144.846V148.337H107.128Z" fill="black"/>
<path d="M138.075 143.047V146.539C138.075 147.532 137.269 148.337 136.276 148.337L134.583 148.337C133.59 148.337 132.785 147.532 132.785 146.539V143.047L138.075 143.047Z" fill="black"/>
<path d="M151.855 148.232V148.337H153.468V146.724H153.363C153.363 147.56 152.686 148.232 151.855 148.232Z" fill="black"/>
<path d="M153.31 148.337V144.846C153.31 143.853 154.115 143.047 155.109 143.047H156.801C157.795 143.047 158.6 143.853 158.6 144.846V148.337H153.31Z" fill="black"/>
<path d="M71.3682 153.469H67.8768C66.8835 153.469 66.0782 152.663 66.0782 151.67V149.977C66.0782 148.984 66.8835 148.179 67.8768 148.179H71.3682V153.469Z" fill="black"/>
<path d="M71.2095 148.179H76.4994V151.67C76.4994 152.663 75.6942 153.469 74.7009 153.469H71.2095V148.179Z" fill="black"/>
<path d="M91.8936 148.179V153.469L88.4022 153.469C87.4088 153.469 86.6036 152.663 86.6036 151.67V148.179L91.8936 148.179Z" fill="black"/>
<path d="M97.0248 148.179H91.7349V153.469H97.0248V148.179Z" fill="black"/>
<path d="M96.8657 153.469V148.179H100.357C101.35 148.179 102.156 148.984 102.156 149.977V153.469H96.8657Z" fill="black"/>
<path d="M112.418 148.179H107.128V153.469H112.418V148.179Z" fill="black"/>
<path d="M117.55 148.179H112.26V153.469H117.55V148.179Z" fill="black"/>
<path d="M122.681 148.179H117.391V153.469H122.681V148.179Z" fill="black"/>
<path d="M122.522 153.469V149.977C122.522 148.984 123.328 148.179 124.321 148.179H126.014C127.007 148.179 127.812 148.984 127.812 149.977V153.469H122.522Z" fill="black"/>
<path d="M148.337 153.469H144.846C143.853 153.469 143.047 152.663 143.047 151.67V149.977C143.047 148.984 143.853 148.179 144.846 148.179H148.337V153.469Z" fill="black"/>
<path d="M153.469 148.179H148.179V153.469H153.469V148.179Z" fill="black"/>
<path d="M158.6 148.179H153.31V153.469H158.6V148.179Z" fill="black"/>
<path d="M158.441 153.469V148.179H161.933C162.926 148.179 163.731 148.984 163.731 149.977V153.469H158.441Z" fill="black"/>
<path d="M74.8862 158.494V158.6H76.4997V156.986H76.3939C76.3939 157.822 75.7168 158.494 74.8862 158.494Z" fill="black"/>
<path d="M81.6309 158.6H76.3409V155.108C76.3409 154.115 77.1461 153.31 78.1395 153.31H81.6309V158.6Z" fill="black"/>
<path d="M81.4722 158.6V155.108C81.4722 154.115 82.2774 153.31 83.2708 153.31H84.9635C85.9569 153.31 86.7621 154.115 86.7621 155.108V158.6H81.4722Z" fill="black"/>
<path d="M102.156 153.31V156.801C102.156 157.795 101.351 158.6 100.357 158.6L98.6644 158.6C97.671 158.6 96.8658 157.795 96.8658 156.801V153.31L102.156 153.31Z" fill="black"/>
<path d="M112.418 153.31V158.6L108.927 158.6C107.934 158.6 107.128 157.795 107.128 156.801V153.31L112.418 153.31Z" fill="black"/>
<path d="M112.26 153.31H117.55V156.801C117.55 157.795 116.744 158.6 115.751 158.6H112.26V153.31Z" fill="black"/>
<path d="M132.943 158.6H129.452C128.459 158.6 127.653 157.795 127.653 156.801V155.108C127.653 154.115 128.459 153.31 129.452 153.31H132.943V158.6Z" fill="black"/>
<path d="M132.785 158.6V155.108C132.785 154.115 133.59 153.31 134.583 153.31H136.276C137.269 153.31 138.075 154.115 138.075 155.108V158.6H132.785Z" fill="black"/>
<path d="M158.6 153.31H153.31V158.6H158.6V153.31Z" fill="black"/>
<path d="M158.441 153.31H163.731V156.801C163.731 157.795 162.926 158.6 161.933 158.6H158.441V153.31Z" fill="black"/>
<path d="M60.9473 159.954V162.223C60.9473 163.059 61.6244 163.731 62.4602 163.731H64.7296C65.5707 163.731 66.2425 163.054 66.2425 162.218V159.954C66.2372 159.113 65.5601 158.441 64.7243 158.441H62.4602C61.6244 158.441 60.9473 159.118 60.9473 159.954Z" fill="black"/>
<path d="M76.4995 163.731H73.0081C72.0148 163.731 71.2095 162.926 71.2095 161.933V160.24C71.2095 159.246 72.0148 158.441 73.0081 158.441H76.4995V163.731Z" fill="black"/>
<path d="M76.3408 158.441H81.6308V161.933C81.6308 162.926 80.8255 163.731 79.8322 163.731H76.3408V158.441Z" fill="black"/>
<path d="M91.7349 159.954V162.223C91.7349 163.059 92.412 163.731 93.2478 163.731H95.5172C96.3583 163.731 97.0301 163.054 97.0301 162.218V159.954C97.0248 159.113 96.3477 158.441 95.5119 158.441H93.2478C92.412 158.441 91.7349 159.118 91.7349 159.954Z" fill="black"/>
<path d="M122.681 163.731H119.19C118.196 163.731 117.391 162.926 117.391 161.933V160.24C117.391 159.246 118.196 158.441 119.19 158.441H122.681V163.731Z" fill="black"/>
<path d="M122.522 163.731V160.24C122.522 159.246 123.328 158.441 124.321 158.441H126.014C127.007 158.441 127.812 159.246 127.812 160.24V163.731H122.522Z" fill="black"/>
<path d="M137.916 159.954V162.223C137.916 163.059 138.593 163.731 139.429 163.731H141.698C142.539 163.731 143.211 163.054 143.211 162.218V159.954C143.206 159.113 142.529 158.441 141.693 158.441H139.429C138.593 158.441 137.916 159.118 137.916 159.954Z" fill="black"/>
<path d="M158.6 158.441V161.933C158.6 162.926 157.795 163.731 156.802 163.731L155.109 163.731C154.115 163.731 153.31 162.926 153.31 161.933V158.441L158.6 158.441Z" fill="black"/>
<path d="M46.5055 38.9582V27.6022C46.5055 22.5616 45.8198 21.3317 45.5249 21.0361C45.2293 20.7412 43.9995 20.0555 38.9582 20.0555H27.6028C22.5616 20.0555 21.3317 20.7412 21.0368 21.0361C20.7419 21.3317 20.0555 22.5616 20.0555 27.6022V38.9582C20.0555 43.9995 20.7419 45.2293 21.0368 45.5249C21.3317 45.8192 22.5616 46.5055 27.6028 46.5055H38.9582C43.9995 46.5055 45.2293 45.8192 45.5249 45.5249C45.8198 45.2293 46.5055 43.9995 46.5055 38.9582ZM38.9582 14.7656C49.327 14.7656 51.7954 17.234 51.7954 27.6022C51.7954 37.971 51.7954 28.59 51.7954 38.9582C51.7954 49.327 49.327 51.7954 38.9582 51.7954C28.59 51.7954 37.971 51.7954 27.6028 51.7954C17.234 51.7954 14.7656 49.327 14.7656 38.9582C14.7656 28.59 14.7656 33.3926 14.7656 27.6022C14.7656 17.234 17.234 14.7656 27.6028 14.7656C37.971 14.7656 28.59 14.7656 38.9582 14.7656ZM35.7137 25.3456C40.1577 25.3456 41.2155 26.404 41.2155 30.8466C41.2155 35.2906 41.2155 31.2704 41.2155 35.7137C41.2155 40.157 40.1577 41.2155 35.7137 41.2155C31.2704 41.2155 35.2906 41.2155 30.8473 41.2155C26.404 41.2155 25.3456 40.157 25.3456 35.7137C25.3456 31.2704 25.3456 33.3284 25.3456 30.8466C25.3456 26.404 26.404 25.3456 30.8473 25.3456C35.2906 25.3456 31.2704 25.3456 35.7137 25.3456Z" fill="black"/>
<path d="M158.23 38.9582V27.6022C158.23 22.5616 157.544 21.3317 157.249 21.0361C156.953 20.7412 155.724 20.0555 150.682 20.0555H139.327C134.286 20.0555 133.056 20.7412 132.761 21.0361C132.466 21.3317 131.78 22.5616 131.78 27.6022V38.9582C131.78 43.9995 132.466 45.2293 132.761 45.5249C133.056 45.8192 134.286 46.5055 139.327 46.5055H150.682C155.724 46.5055 156.953 45.8192 157.249 45.5249C157.544 45.2293 158.23 43.9995 158.23 38.9582ZM150.682 14.7656C161.051 14.7656 163.52 17.234 163.52 27.6022C163.52 37.971 163.52 28.59 163.52 38.9582C163.52 49.327 161.051 51.7954 150.682 51.7954C140.314 51.7954 149.695 51.7954 139.327 51.7954C128.958 51.7954 126.49 49.327 126.49 38.9582C126.49 28.59 126.49 33.3926 126.49 27.6022C126.49 17.234 128.958 14.7656 139.327 14.7656C149.695 14.7656 140.314 14.7656 150.682 14.7656ZM147.438 25.3456C151.882 25.3456 152.94 26.404 152.94 30.8466C152.94 35.2906 152.94 31.2704 152.94 35.7137C152.94 40.157 151.882 41.2155 147.438 41.2155C142.995 41.2155 147.015 41.2155 142.571 41.2155C138.128 41.2155 137.07 40.157 137.07 35.7137C137.07 31.2704 137.07 33.3284 137.07 30.8466C137.07 26.404 138.128 25.3456 142.571 25.3456C147.015 25.3456 142.995 25.3456 147.438 25.3456Z" fill="black"/>
<path d="M46.5055 150.682V139.326C46.5055 134.286 45.8198 133.056 45.5249 132.76C45.2293 132.465 43.9995 131.78 38.9582 131.78H27.6028C22.5616 131.78 21.3317 132.465 21.0368 132.76C20.7419 133.056 20.0555 134.286 20.0555 139.326V150.682C20.0555 155.724 20.7419 156.953 21.0368 157.249C21.3317 157.543 22.5616 158.23 27.6028 158.23H38.9582C43.9995 158.23 45.2293 157.543 45.5249 157.249C45.8198 156.953 46.5055 155.724 46.5055 150.682ZM38.9582 126.49C49.327 126.49 51.7954 128.958 51.7954 139.326C51.7954 149.695 51.7954 140.314 51.7954 150.682C51.7954 161.051 49.327 163.52 38.9582 163.52C28.59 163.52 37.971 163.52 27.6028 163.52C17.234 163.52 14.7656 161.051 14.7656 150.682C14.7656 140.314 14.7656 145.117 14.7656 139.326C14.7656 128.958 17.234 126.49 27.6028 126.49C37.971 126.49 28.59 126.49 38.9582 126.49ZM35.7137 137.07C40.1577 137.07 41.2155 138.128 41.2155 142.571C41.2155 147.015 41.2155 142.995 41.2155 147.438C41.2155 151.881 40.1577 152.94 35.7137 152.94C31.2704 152.94 35.2906 152.94 30.8473 152.94C26.404 152.94 25.3456 151.881 25.3456 147.438C25.3456 142.995 25.3456 145.053 25.3456 142.571C25.3456 138.128 26.404 137.07 30.8473 137.07C35.2906 137.07 31.2704 137.07 35.7137 137.07Z" fill="black"/>
</g>
<defs>
<clipPath id="clip0_159_841">
<rect width="180" height="180" fill="white"/>
</clipPath>
</defs>
</svg>
