<svg width="33" height="32" viewBox="0 0 33 32" fill="none" xmlns="http://www.w3.org/2000/svg">
<path d="M21.7082 24.7251L21.9788 23.9379L21.2537 23.529L11.56 18.0623L10.9504 17.7185L10.4186 18.1735C10.1145 18.4338 9.77548 18.6373 9.39714 18.7858C9.03458 18.9281 8.65454 19 8.25 19C7.35665 19 6.63453 18.7072 6.02427 18.1155C5.4152 17.5248 5.125 16.8389 5.125 16C5.125 15.1611 5.4152 14.4752 6.02427 13.8846C6.63453 13.2928 7.35665 13 8.25 13C8.65454 13 9.03458 13.0719 9.39714 13.2142C9.77548 13.3627 10.1145 13.5663 10.4186 13.8265L10.9504 14.2815L11.56 13.9377L21.2537 8.47106L21.9788 8.06216L21.7082 7.27494C21.687 7.21336 21.6658 7.12811 21.6501 7.0138C21.6328 6.88865 21.625 6.77316 21.625 6.66669C21.625 5.82782 21.9152 5.14187 22.5243 4.55125C23.1345 3.95949 23.8566 3.66669 24.75 3.66669C25.6434 3.66669 26.3655 3.95949 26.9757 4.55125C27.5848 5.14187 27.875 5.82782 27.875 6.66669C27.875 7.50556 27.5848 8.19151 26.9757 8.78212C26.3655 9.37389 25.6434 9.66669 24.75 9.66669C24.3455 9.66669 23.9654 9.59479 23.6029 9.45249C23.2245 9.30399 22.8855 9.10042 22.5814 8.84019L22.0496 8.38522L21.44 8.72898L11.7463 14.1956L11.0212 14.6045L11.2918 15.3918C11.313 15.4533 11.3342 15.5386 11.3499 15.6529C11.3672 15.778 11.375 15.8935 11.375 16C11.375 16.1065 11.3672 16.222 11.3499 16.3471C11.3342 16.4614 11.313 16.5467 11.2918 16.6083L11.0212 17.3955L11.7463 17.8044L21.44 23.2711L22.0496 23.6148L22.5814 23.1599C22.8855 22.8996 23.2245 22.6961 23.6029 22.5476C23.9654 22.4053 24.3455 22.3334 24.75 22.3334C25.6434 22.3334 26.3655 22.6262 26.9757 23.2179C27.5848 23.8085 27.875 24.4945 27.875 25.3334C27.875 26.1722 27.5848 26.8582 26.9757 27.4488C26.3655 28.0406 25.6434 28.3334 24.75 28.3334C23.8566 28.3334 23.1345 28.0406 22.5243 27.4488C21.9152 26.8582 21.625 26.1722 21.625 25.3334C21.625 25.2269 21.6328 25.1114 21.6501 24.9862C21.6658 24.8719 21.687 24.7867 21.7082 24.7251ZM6.57417 17.6679L7.27031 16.95L6.57417 17.6679C7.03653 18.1163 7.61811 18.3334 8.25 18.3334C8.88189 18.3334 9.46347 18.1163 9.92583 17.6679L9.22969 16.95L9.92583 17.6679C10.3899 17.218 10.625 16.6395 10.625 16C10.625 15.3605 10.3899 14.7821 9.92583 14.3321C9.46347 13.8838 8.8819 13.6667 8.25 13.6667C7.6181 13.6667 7.03653 13.8838 6.57417 14.3321C6.11014 14.7821 5.875 15.3605 5.875 16C5.875 16.6395 6.11014 17.218 6.57417 17.6679ZM24.75 9.00002C25.3819 9.00002 25.9635 8.78294 26.4258 8.33459C26.8899 7.88462 27.125 7.30617 27.125 6.66669C27.125 6.02721 26.8899 5.44876 26.4258 4.99879C25.9635 4.55043 25.3819 4.33335 24.75 4.33335C24.1181 4.33335 23.5365 4.55043 23.0742 4.99879C22.6101 5.44876 22.375 6.0272 22.375 6.66669C22.375 7.30617 22.6101 7.88462 23.0742 8.33459C23.5365 8.78294 24.1181 9.00002 24.75 9.00002ZM24.75 27.6667C25.3819 27.6667 25.9635 27.4496 26.4258 27.0013C26.8899 26.5513 27.125 25.9728 27.125 25.3334C27.125 24.6939 26.8899 24.1154 26.4258 23.6655C25.9635 23.2171 25.3819 23 24.75 23C24.1181 23 23.5365 23.2171 23.0742 23.6655C22.6101 24.1154 22.375 24.6939 22.375 25.3334C22.375 25.9728 22.6101 26.5513 23.0742 27.0013C23.5365 27.4496 24.1181 27.6667 24.75 27.6667Z" fill="#1D1B20" stroke="white" stroke-width="2"/>
</svg>
