<svg width="39" height="39" viewBox="0 0 39 39" fill="none" xmlns="http://www.w3.org/2000/svg">
<g clip-path="url(#clip0_169_11)">
<path fill-rule="evenodd" clip-rule="evenodd" d="M19.5 0C30.2696 0 39 8.73045 39 19.5C39 30.2696 30.2696 39 19.5 39C8.73045 39 0 30.2696 0 19.5C0 8.73045 8.73045 0 19.5 0ZM20.6679 7.94312C21.9938 8.1086 23.0653 8.42799 24.2409 9.00142C25.3972 9.56718 26.1372 10.1021 27.1163 11.0758C28.0336 11.9956 28.5424 12.6922 29.082 13.7737C29.8336 15.2823 30.2615 17.0757 30.3347 19.05C30.3617 19.7235 30.3424 19.8736 30.1882 20.066C29.8953 20.4394 29.2516 20.3777 29.0319 19.9583C28.9625 19.8197 28.9432 19.7005 28.9201 19.1616C28.8815 18.3342 28.8238 17.7992 28.7081 17.1604C28.2533 14.655 27.0507 12.6537 25.1312 11.2182C23.5317 10.0175 21.8781 9.43245 19.712 9.30547C18.9797 9.26313 18.8525 9.23624 18.6867 9.10922C18.3783 8.86675 18.363 8.29719 18.6597 8.03165C18.8409 7.86613 18.9681 7.84303 19.5964 7.86227C19.924 7.87381 20.4058 7.91232 20.6679 7.94312ZM11.8568 8.35876C11.9917 8.40493 12.1998 8.51268 12.3193 8.58966C13.0516 9.0746 15.0906 11.68 15.7574 12.9809C16.139 13.7236 16.2662 14.2739 16.1467 14.6819C16.0233 15.1206 15.8191 15.3516 14.9056 16.0866C14.5394 16.3829 14.1963 16.687 14.1424 16.7678C14.0037 16.968 13.8918 17.3605 13.8918 17.6376C13.8958 18.2803 14.312 19.4464 14.8594 20.3432C15.2833 21.0397 16.0426 21.9326 16.7942 22.6176C17.6769 23.4259 18.4554 23.9761 19.3342 24.4111C20.4636 24.9729 21.1535 25.1153 21.6585 24.8806C21.7857 24.8229 21.9205 24.7459 21.963 24.7113C22.0015 24.6766 22.2983 24.3148 22.6221 23.9146C23.2465 23.1295 23.3891 23.0025 23.8169 22.8563C24.3604 22.6716 24.9155 22.7215 25.4743 23.0063C25.8983 23.2257 26.8234 23.7992 27.4208 24.2148C28.207 24.7651 29.8876 26.1352 30.115 26.4085C30.5159 26.9011 30.5853 27.5322 30.3154 28.2289C30.0302 28.9639 28.9201 30.3417 28.1454 30.9305C27.4439 31.4616 26.9467 31.6656 26.2914 31.6964C25.7518 31.7233 25.5283 31.6771 24.8383 31.3923C19.4268 29.164 15.106 25.8389 11.6756 21.2706C9.88333 18.8845 8.51886 16.4099 7.58606 13.843C7.04263 12.3459 7.01569 11.6954 7.46274 10.9296C7.6555 10.6063 8.47647 9.8058 9.07388 9.35939C10.0683 8.62045 10.527 8.34718 10.8932 8.27023C11.1437 8.21634 11.5792 8.25869 11.8568 8.35876ZM20.9338 10.7333C23.2735 11.0758 25.085 12.1611 26.2722 13.9238C26.939 14.9167 27.3552 16.0828 27.4979 17.3335C27.5479 17.7915 27.5479 18.6267 27.494 18.7652C27.4439 18.8961 27.282 19.0731 27.1432 19.1462C26.9929 19.2232 26.6731 19.2155 26.4957 19.1231C26.1989 18.9731 26.1103 18.7344 26.1103 18.0879C26.1103 17.0911 25.852 16.0404 25.405 15.2245C24.8962 14.2932 24.1561 13.5235 23.2542 12.9885C22.4795 12.5267 21.3347 12.1842 20.2902 12.0996C19.9124 12.0687 19.7043 11.9918 19.5617 11.8263C19.342 11.5761 19.3188 11.2374 19.5038 10.9565C19.7043 10.6448 20.0126 10.5947 20.9338 10.7333ZM21.7548 13.6389C22.5141 13.8006 23.0962 14.0892 23.5934 14.5549C24.2332 15.1591 24.584 15.8903 24.7381 16.941C24.8422 17.6261 24.7998 17.8954 24.557 18.1187C24.3296 18.3265 23.9095 18.3342 23.655 18.1379C23.47 17.9993 23.4122 17.8531 23.3698 17.4567C23.3197 16.9295 23.2272 16.56 23.0692 16.2175C22.73 15.4901 22.1326 15.1129 21.1227 14.9898C20.6486 14.9321 20.506 14.8782 20.3519 14.6973C20.0705 14.3625 20.1783 13.8198 20.5676 13.6197C20.7142 13.5466 20.7758 13.5389 21.0996 13.5581C21.3 13.5697 21.5968 13.6043 21.7548 13.6389Z" fill="#7F4DA0"/>
</g>
<defs>
<clipPath id="clip0_169_11">
<rect width="39" height="39" fill="white"/>
</clipPath>
</defs>
</svg>
