<svg width="39" height="39" viewBox="0 0 39 39" fill="none" xmlns="http://www.w3.org/2000/svg">
<g clip-path="url(#clip0_171_15)">
<path d="M33.15 0H5.85C2.61913 0 0 2.61913 0 5.85V33.15C0 36.3809 2.61913 39 5.85 39H33.15C36.3809 39 39 36.3809 39 33.15V5.85C39 2.61913 36.3809 0 33.15 0Z" fill="#5281B8"/>
<path d="M20.8712 27.6504C21.252 27.5742 21.9376 27.4219 21.9376 26.5078C21.9376 26.5078 21.8614 24.2227 22.9278 23.918C23.9942 23.6133 25.3653 26.127 26.8126 27.1172C27.879 27.8027 28.7169 27.7266 28.7169 27.7266L32.6017 27.6504C32.6017 27.6504 34.5821 27.4981 33.6681 25.8985C33.5919 25.7461 32.9825 24.7559 30.6974 22.6992C28.336 20.4141 28.7169 20.7949 31.5353 16.9102C33.2872 14.5488 34.0489 13.1016 33.8204 12.5684C33.5157 12.0352 32.297 12.1113 32.297 12.1113H27.9552C27.4981 12.1113 27.2696 12.1875 27.0411 12.5684C27.0411 12.5684 26.3556 14.4727 25.4415 15.9961C23.5372 19.2715 22.7755 19.4238 22.3946 19.1953C21.7091 18.8145 21.8614 17.3672 21.8614 16.377C21.8614 12.9492 22.3946 11.7305 20.8712 11.4258C19.881 11.2735 16.377 11.1211 15.3106 11.6543C14.7774 11.959 14.4728 12.4922 14.7013 12.5684C14.9298 12.5684 15.6153 12.6445 15.9962 13.1016C16.6056 14.0918 16.6817 18.8145 15.8438 19.2715C14.7013 20.1094 11.8067 14.5488 11.1212 12.7207C10.9688 12.2637 10.7403 12.1875 10.2071 12.0352H6.01767C5.56064 12.0352 4.8751 12.1113 5.17978 13.0254C7.23642 17.291 11.502 27.7266 19.1954 27.6504H20.8712Z" fill="white"/>
</g>
<defs>
<clipPath id="clip0_171_15">
<rect width="39" height="39" fill="white"/>
</clipPath>
</defs>
</svg>
